<svg width="76" height="38" viewBox="0 0 76 38" fill="none" xmlns="http://www.w3.org/2000/svg">
<path d="M36.2656 36.5123H29.0277V10.798C29.0277 10.2958 28.9265 9.82697 28.724 9.39171C28.5385 8.95644 28.2769 8.57979 27.9395 8.26175C27.6189 7.92689 27.2394 7.66738 26.8007 7.4833C26.362 7.29913 25.8896 7.20705 25.3834 7.20705C24.8773 7.20705 24.4048 7.29913 23.9662 7.4833C23.5275 7.66738 23.1395 7.92689 22.8021 8.26175C22.4815 8.57979 22.2284 8.95644 22.0428 9.39171C21.8573 9.82697 21.7645 10.2958 21.7645 10.798V36.5123H14.5012V10.798C14.5012 10.2958 14.4084 9.82697 14.2228 9.39171C14.0372 8.95644 13.7757 8.57979 13.4383 8.26175C13.1177 7.92689 12.7381 7.66738 12.2995 7.4833C11.8608 7.29913 11.3884 7.20705 10.8822 7.20705C10.3761 7.20705 9.90369 7.29913 9.46503 7.4833C9.02637 7.66738 8.6383 7.92689 8.30083 8.26175C7.98031 8.57979 7.72725 8.95644 7.54164 9.39171C7.35605 9.82697 7.26325 10.2958 7.26325 10.798V36.5123H0V10.798C0 9.30803 0.278383 7.91015 0.83515 6.60436C1.40878 5.28181 2.18488 4.13504 3.16344 3.16407C4.15887 2.17634 5.31458 1.40625 6.63057 0.853796C7.96345 0.284596 9.38062 0 10.8822 0C12.232 0 13.5311 0.242743 14.7796 0.728237C16.0281 1.19699 17.1501 1.88337 18.1454 2.78739C19.1409 1.88337 20.2544 1.19699 21.4861 0.728237C22.7346 0.242743 24.0337 0 25.3834 0C26.885 0 28.2938 0.284596 29.6098 0.853796C30.9426 1.40625 32.0984 2.17634 33.077 3.16407C34.0723 4.13504 34.8485 5.28181 35.4052 6.60436C35.9788 7.91015 36.2656 9.30803 36.2656 10.798V36.5123Z" fill="#F5C518"/>
<path d="M53.2627 37.01H46V1H53.2627V15.414H67.7644V1H75.028V37.01H67.7644V22.6211H53.2627V37.01Z" fill="white"/>
</svg>
