<svg width="282" height="49" viewBox="0 0 282 49" fill="none" xmlns="http://www.w3.org/2000/svg">
<path d="M44.8652 48H36.0674V16.5C36.0674 15.8848 35.9443 15.3105 35.6982 14.7773C35.4727 14.2441 35.1548 13.7827 34.7446 13.3931C34.355 12.9829 33.8936 12.665 33.3604 12.4395C32.8271 12.2139 32.2529 12.1011 31.6377 12.1011C31.0225 12.1011 30.4482 12.2139 29.915 12.4395C29.3818 12.665 28.9102 12.9829 28.5 13.3931C28.1104 13.7827 27.8027 14.2441 27.5771 14.7773C27.3516 15.3105 27.2388 15.8848 27.2388 16.5V48H18.4102V16.5C18.4102 15.8848 18.2974 15.3105 18.0718 14.7773C17.8462 14.2441 17.5283 13.7827 17.1182 13.3931C16.7285 12.9829 16.2671 12.665 15.7339 12.4395C15.2007 12.2139 14.6265 12.1011 14.0112 12.1011C13.396 12.1011 12.8218 12.2139 12.2886 12.4395C11.7554 12.665 11.2837 12.9829 10.8735 13.3931C10.4839 13.7827 10.1763 14.2441 9.95068 14.7773C9.7251 15.3105 9.6123 15.8848 9.6123 16.5V48H0.783691V16.5C0.783691 14.6748 1.12207 12.9624 1.79883 11.3628C2.49609 9.74268 3.43945 8.33789 4.62891 7.14844C5.83887 5.93848 7.24365 4.99512 8.84326 4.31836C10.4634 3.62109 12.186 3.27246 14.0112 3.27246C15.6519 3.27246 17.231 3.56982 18.7485 4.16455C20.2661 4.73877 21.6299 5.57959 22.8398 6.68701C24.0498 5.57959 25.4033 4.73877 26.9004 4.16455C28.418 3.56982 29.9971 3.27246 31.6377 3.27246C33.4629 3.27246 35.1753 3.62109 36.7749 4.31836C38.395 4.99512 39.7998 5.93848 40.9893 7.14844C42.1992 8.33789 43.1426 9.74268 43.8193 11.3628C44.5166 12.9624 44.8652 14.6748 44.8652 16.5V48ZM83.3481 31.2349C83.3481 33.6958 82.9072 35.9927 82.0254 38.1255C81.1436 40.2378 79.9438 42.0732 78.4263 43.6318C76.9087 45.1699 75.1245 46.3901 73.0737 47.2925C71.0435 48.1743 68.8594 48.6152 66.5215 48.6152C64.2041 48.6152 62.02 48.1743 59.9692 47.2925C57.939 46.3901 56.1548 45.1699 54.6167 43.6318C53.0991 42.0732 51.8994 40.2378 51.0176 38.1255C50.1357 35.9927 49.6948 33.6958 49.6948 31.2349C49.6948 28.7329 50.1357 26.4155 51.0176 24.2827C51.8994 22.1499 53.0991 20.3145 54.6167 18.7764C56.1548 17.2178 57.939 15.9976 59.9692 15.1157C62.02 14.2339 64.2041 13.793 66.5215 13.793C68.8594 13.793 71.0435 14.2134 73.0737 15.0542C75.1245 15.8745 76.9087 17.0537 78.4263 18.5918C79.9438 20.1094 81.1436 21.9448 82.0254 24.0981C82.9072 26.231 83.3481 28.6099 83.3481 31.2349ZM74.8887 31.2349C74.8887 29.8813 74.6631 28.6611 74.2119 27.5742C73.7812 26.4668 73.1865 25.5234 72.4277 24.7441C71.6689 23.9443 70.7769 23.3394 69.7515 22.9292C68.7466 22.4985 67.6699 22.2832 66.5215 22.2832C65.373 22.2832 64.2861 22.4985 63.2607 22.9292C62.2559 23.3394 61.374 23.9443 60.6152 24.7441C59.877 25.5234 59.2925 26.4668 58.8618 27.5742C58.4312 28.6611 58.2158 29.8813 58.2158 31.2349C58.2158 32.5063 58.4312 33.6855 58.8618 34.7725C59.2925 35.8594 59.877 36.8027 60.6152 37.6025C61.374 38.4023 62.2559 39.0381 63.2607 39.5098C64.2861 39.9609 65.373 40.1865 66.5215 40.1865C67.6699 40.1865 68.7466 39.9712 69.7515 39.5405C70.7769 39.1099 71.6689 38.5049 72.4277 37.7256C73.1865 36.9463 73.7812 36.0029 74.2119 34.8955C74.6631 33.7881 74.8887 32.5679 74.8887 31.2349ZM237.218 44.1548C236.542 44.77 235.813 45.3545 235.034 45.9082C234.275 46.4414 233.476 46.9131 232.635 47.3232C231.794 47.7129 230.922 48.0205 230.02 48.2461C229.138 48.4922 228.236 48.6152 227.313 48.6152C225.283 48.6152 223.375 48.2563 221.591 47.5386C219.807 46.8208 218.238 45.8057 216.885 44.4932C215.552 43.1602 214.496 41.5503 213.716 39.6636C212.958 37.7563 212.578 35.6235 212.578 33.2651V15.0542H220.945V33.2651C220.945 34.3726 221.109 35.3672 221.438 36.249C221.786 37.1104 222.248 37.8384 222.822 38.4331C223.396 39.0278 224.062 39.479 224.821 39.7866C225.601 40.0942 226.431 40.248 227.313 40.248C228.174 40.248 228.984 40.0532 229.743 39.6636C230.522 39.2534 231.199 38.7202 231.773 38.064C232.348 37.4077 232.799 36.6694 233.127 35.8491C233.455 35.0083 233.619 34.147 233.619 33.2651V15.0542H242.017V48H239.987L237.218 44.1548ZM281.423 31.2349C281.423 33.8188 280.982 36.1772 280.1 38.3101C279.218 40.4429 278.019 42.2783 276.501 43.8164C274.983 45.334 273.199 46.5132 271.148 47.354C269.118 48.1948 266.934 48.6152 264.596 48.6152C262.279 48.6152 260.095 48.1846 258.044 47.3232C256.014 46.4619 254.229 45.2622 252.691 43.7241C251.174 42.186 249.974 40.3608 249.092 38.2485C248.21 36.1157 247.77 33.7778 247.77 31.2349V1.94971H256.198V17.3306C256.649 16.7563 257.193 16.2437 257.829 15.7925C258.485 15.3413 259.182 14.9722 259.92 14.6851C260.679 14.3979 261.458 14.1826 262.258 14.0391C263.058 13.875 263.837 13.793 264.596 13.793C266.934 13.793 269.118 14.2339 271.148 15.1157C273.199 15.9771 274.983 17.187 276.501 18.7456C278.019 20.3042 279.218 22.1499 280.1 24.2827C280.982 26.395 281.423 28.7124 281.423 31.2349ZM272.963 31.2349C272.963 29.9634 272.738 28.7842 272.287 27.6973C271.856 26.5898 271.261 25.6362 270.502 24.8364C269.744 24.0366 268.852 23.4111 267.826 22.96C266.821 22.5088 265.745 22.2832 264.596 22.2832C263.448 22.2832 262.361 22.5396 261.335 23.0522C260.331 23.5444 259.449 24.2109 258.69 25.0518C257.931 25.8721 257.336 26.8257 256.906 27.9126C256.475 28.979 256.26 30.0864 256.26 31.2349C256.26 32.5063 256.475 33.6855 256.906 34.7725C257.336 35.8594 257.931 36.8027 258.69 37.6025C259.449 38.4023 260.331 39.0381 261.335 39.5098C262.361 39.9609 263.448 40.1865 264.596 40.1865C265.745 40.1865 266.821 39.9609 267.826 39.5098C268.852 39.0381 269.744 38.4023 270.502 37.6025C271.261 36.8027 271.856 35.8594 272.287 34.7725C272.738 33.6855 272.963 32.5063 272.963 31.2349Z" fill="white"/>
<path d="M97.3447 48L84.7939 15.0542H94.3608L101.559 35.603L108.727 15.0542H118.324L105.773 48H97.3447ZM131.429 6.10254C131.429 6.88184 131.275 7.60986 130.967 8.28662C130.68 8.96338 130.28 9.55811 129.768 10.0708C129.255 10.563 128.65 10.9629 127.953 11.2705C127.276 11.5576 126.548 11.7012 125.769 11.7012C124.989 11.7012 124.251 11.5576 123.554 11.2705C122.877 10.9629 122.282 10.563 121.77 10.0708C121.277 9.55811 120.877 8.96338 120.57 8.28662C120.283 7.60986 120.139 6.88184 120.139 6.10254C120.139 5.34375 120.283 4.62598 120.57 3.94922C120.877 3.25195 121.277 2.65723 121.77 2.16504C122.282 1.65234 122.877 1.25244 123.554 0.965332C124.251 0.657715 124.989 0.503906 125.769 0.503906C126.548 0.503906 127.276 0.657715 127.953 0.965332C128.65 1.25244 129.255 1.65234 129.768 2.16504C130.28 2.65723 130.68 3.25195 130.967 3.94922C131.275 4.62598 131.429 5.34375 131.429 6.10254ZM129.983 48H121.523V15.0542H129.983V48ZM149.517 39.9404C149.845 40.043 150.173 40.1147 150.501 40.1558C150.829 40.1763 151.157 40.1865 151.485 40.1865C152.306 40.1865 153.095 40.0737 153.854 39.8481C154.613 39.6226 155.32 39.3047 155.977 38.8945C156.653 38.4639 157.248 37.9512 157.761 37.3564C158.294 36.7412 158.725 36.0645 159.053 35.3262L165.205 41.5093C164.426 42.6167 163.523 43.6113 162.498 44.4932C161.493 45.375 160.396 46.1235 159.207 46.7388C158.038 47.354 156.797 47.8154 155.484 48.123C154.192 48.4512 152.859 48.6152 151.485 48.6152C149.168 48.6152 146.984 48.1846 144.933 47.3232C142.903 46.4619 141.119 45.2622 139.581 43.7241C138.063 42.186 136.863 40.3608 135.981 38.2485C135.1 36.1157 134.659 33.7778 134.659 31.2349C134.659 28.6304 135.1 26.2515 135.981 24.0981C136.863 21.9448 138.063 20.1094 139.581 18.5918C141.119 17.0742 142.903 15.895 144.933 15.0542C146.984 14.2134 149.168 13.793 151.485 13.793C152.859 13.793 154.203 13.957 155.515 14.2852C156.828 14.6133 158.068 15.085 159.237 15.7002C160.427 16.3154 161.534 17.0742 162.56 17.9766C163.585 18.8584 164.487 19.853 165.267 20.9604L149.517 39.9404ZM153.823 22.6216C153.434 22.478 153.044 22.3857 152.654 22.3447C152.285 22.3037 151.896 22.2832 151.485 22.2832C150.337 22.2832 149.25 22.4985 148.225 22.9292C147.22 23.3394 146.338 23.9341 145.579 24.7134C144.841 25.4927 144.256 26.436 143.826 27.5435C143.395 28.6304 143.18 29.8608 143.18 31.2349C143.18 31.5425 143.19 31.8911 143.21 32.2808C143.251 32.6704 143.303 33.0703 143.364 33.4805C143.446 33.8701 143.539 34.2495 143.641 34.6187C143.744 34.9878 143.877 35.3159 144.041 35.603L153.823 22.6216ZM179.232 48H170.404V3.8877H179.232V21.5449H196.859V3.8877H205.688V48H196.859V30.3735H179.232V48Z" fill="#F5C518"/>
</svg>
