<svg width="707" height="396" viewBox="0 0 707 396" fill="none" xmlns="http://www.w3.org/2000/svg">
<rect opacity="0.7" width="707" height="396" fill="#888888"/>
<path d="M274.91 217.184H267.672V191.469C267.672 190.967 267.571 190.498 267.369 190.063C267.183 189.628 266.922 189.251 266.584 188.933C266.264 188.598 265.884 188.339 265.445 188.155C265.007 187.971 264.534 187.878 264.028 187.878C263.522 187.878 263.05 187.971 262.611 188.155C262.172 188.339 261.784 188.598 261.447 188.933C261.126 189.251 260.873 189.628 260.688 190.063C260.502 190.498 260.409 190.967 260.409 191.469V217.184H253.146V191.469C253.146 190.967 253.053 190.498 252.868 190.063C252.682 189.628 252.42 189.251 252.083 188.933C251.762 188.598 251.383 188.339 250.944 188.155C250.506 187.971 250.033 187.878 249.527 187.878C249.021 187.878 248.548 187.971 248.11 188.155C247.671 188.339 247.283 188.598 246.946 188.933C246.625 189.251 246.372 189.628 246.186 190.063C246.001 190.498 245.908 190.967 245.908 191.469V217.184H238.645V191.469C238.645 189.979 238.923 188.582 239.48 187.276C240.054 185.953 240.83 184.806 241.808 183.835C242.804 182.848 243.959 182.078 245.275 181.525C246.608 180.956 248.025 180.671 249.527 180.671C250.877 180.671 252.176 180.914 253.424 181.4C254.673 181.868 255.795 182.555 256.79 183.459C257.786 182.555 258.899 181.868 260.131 181.4C261.379 180.914 262.678 180.671 264.028 180.671C265.53 180.671 266.939 180.956 268.255 181.525C269.587 182.078 270.743 182.848 271.722 183.835C272.717 184.806 273.493 185.953 274.05 187.276C274.624 188.582 274.91 189.979 274.91 191.469V217.184ZM306.57 203.498C306.57 205.507 306.207 207.382 305.482 209.123C304.756 210.847 303.769 212.345 302.521 213.618C301.272 214.873 299.805 215.869 298.117 216.606C296.447 217.326 294.65 217.686 292.727 217.686C290.82 217.686 289.024 217.326 287.336 216.606C285.666 215.869 284.198 214.873 282.933 213.618C281.684 212.345 280.697 210.847 279.972 209.123C279.246 207.382 278.884 205.507 278.884 203.498C278.884 201.455 279.246 199.564 279.972 197.823C280.697 196.082 281.684 194.583 282.933 193.328C284.198 192.055 285.666 191.059 287.336 190.339C289.024 189.62 290.82 189.26 292.727 189.26C294.65 189.26 296.447 189.603 298.117 190.289C299.805 190.959 301.272 191.921 302.521 193.177C303.769 194.416 304.756 195.914 305.482 197.672C306.207 199.413 306.57 201.355 306.57 203.498ZM299.611 203.498C299.611 202.393 299.425 201.397 299.054 200.51C298.699 199.606 298.21 198.835 297.586 198.199C296.962 197.546 296.228 197.053 295.384 196.718C294.557 196.366 293.672 196.19 292.727 196.19C291.782 196.19 290.888 196.366 290.044 196.718C289.218 197.053 288.492 197.546 287.868 198.199C287.261 198.835 286.78 199.606 286.425 200.51C286.071 201.397 285.894 202.393 285.894 203.498C285.894 204.536 286.071 205.498 286.425 206.386C286.78 207.273 287.261 208.043 287.868 208.696C288.492 209.349 289.218 209.868 290.044 210.253C290.888 210.621 291.782 210.805 292.727 210.805C293.672 210.805 294.557 210.63 295.384 210.278C296.228 209.926 296.962 209.433 297.586 208.796C298.21 208.16 298.699 207.39 299.054 206.486C299.425 205.582 299.611 204.586 299.611 203.498ZM433.158 214.045C432.602 214.547 432.002 215.024 431.361 215.476C430.737 215.911 430.08 216.296 429.388 216.631C428.696 216.949 427.978 217.2 427.236 217.385C426.511 217.585 425.769 217.686 425.009 217.686C423.339 217.686 421.769 217.393 420.302 216.807C418.834 216.221 417.543 215.392 416.43 214.321C415.334 213.233 414.465 211.919 413.823 210.378C413.199 208.821 412.887 207.08 412.887 205.155V190.289H419.77V205.155C419.77 206.059 419.905 206.871 420.176 207.591C420.462 208.294 420.842 208.888 421.315 209.374C421.787 209.859 422.335 210.228 422.959 210.479C423.601 210.73 424.284 210.856 425.009 210.856C425.718 210.856 426.384 210.696 427.008 210.378C427.649 210.044 428.206 209.608 428.678 209.073C429.152 208.537 429.523 207.934 429.792 207.265C430.062 206.578 430.197 205.875 430.197 205.155V190.289H437.106V217.184H435.436L433.158 214.045ZM469.525 203.498C469.525 205.607 469.162 207.532 468.437 209.274C467.711 211.015 466.725 212.513 465.476 213.768C464.227 215.007 462.759 215.97 461.072 216.656C459.402 217.343 457.605 217.686 455.682 217.686C453.776 217.686 451.979 217.334 450.292 216.631C448.621 215.928 447.153 214.949 445.888 213.693C444.64 212.438 443.652 210.948 442.927 209.223C442.201 207.482 441.839 205.574 441.839 203.498V179.592H448.773V192.147C449.144 191.679 449.591 191.26 450.115 190.892C450.654 190.524 451.228 190.222 451.835 189.988C452.459 189.753 453.1 189.578 453.758 189.46C454.416 189.327 455.057 189.26 455.682 189.26C457.605 189.26 459.402 189.62 461.072 190.339C462.759 191.043 464.227 192.03 465.476 193.303C466.725 194.575 467.711 196.082 468.437 197.823C469.162 199.547 469.525 201.439 469.525 203.498ZM462.565 203.498C462.565 202.46 462.38 201.497 462.009 200.61C461.655 199.706 461.165 198.928 460.541 198.275C459.917 197.622 459.183 197.111 458.339 196.743C457.512 196.375 456.627 196.19 455.682 196.19C454.737 196.19 453.843 196.4 452.999 196.818C452.173 197.22 451.447 197.764 450.823 198.45C450.199 199.12 449.709 199.899 449.355 200.786C449.001 201.656 448.824 202.56 448.824 203.498C448.824 204.536 449.001 205.498 449.355 206.386C449.709 207.273 450.199 208.043 450.823 208.696C451.447 209.349 452.173 209.868 452.999 210.253C453.843 210.621 454.737 210.805 455.682 210.805C456.627 210.805 457.512 210.621 458.339 210.253C459.183 209.868 459.917 209.349 460.541 208.696C461.165 208.043 461.655 207.273 462.009 206.386C462.38 205.498 462.565 204.536 462.565 203.498Z" fill="#D6D6D6"/>
<path d="M318.085 217.184L307.76 190.289H315.63L321.552 207.064L327.449 190.289H335.345L325.019 217.184H318.085ZM346.126 182.982C346.126 183.618 345.999 184.212 345.746 184.765C345.51 185.317 345.181 185.803 344.759 186.221C344.337 186.623 343.84 186.949 343.266 187.2C342.709 187.435 342.11 187.552 341.47 187.552C340.828 187.552 340.221 187.435 339.647 187.2C339.09 186.949 338.601 186.623 338.18 186.221C337.774 185.803 337.445 185.317 337.192 184.765C336.956 184.212 336.838 183.618 336.838 182.982C336.838 182.362 336.956 181.776 337.192 181.224C337.445 180.655 337.774 180.169 338.18 179.767C338.601 179.349 339.09 179.022 339.647 178.788C340.221 178.537 340.828 178.411 341.47 178.411C342.11 178.411 342.709 178.537 343.266 178.788C343.84 179.022 344.337 179.349 344.759 179.767C345.181 180.169 345.51 180.655 345.746 181.224C345.999 181.776 346.126 182.362 346.126 182.982ZM344.936 217.184H337.976V190.289H344.936V217.184ZM361.007 210.604C361.277 210.688 361.547 210.747 361.816 210.78C362.086 210.797 362.356 210.805 362.626 210.805C363.301 210.805 363.951 210.713 364.575 210.529C365.199 210.345 365.781 210.085 366.322 209.751C366.878 209.399 367.367 208.981 367.789 208.495C368.228 207.993 368.582 207.44 368.852 206.838L373.913 211.885C373.272 212.789 372.53 213.601 371.686 214.321C370.859 215.041 369.957 215.652 368.979 216.154C368.017 216.656 366.996 217.033 365.916 217.284C364.853 217.552 363.756 217.686 362.626 217.686C360.72 217.686 358.923 217.334 357.236 216.631C355.566 215.928 354.098 214.949 352.833 213.693C351.584 212.438 350.597 210.948 349.871 209.223C349.146 207.482 348.783 205.574 348.783 203.498C348.783 201.372 349.146 199.43 349.871 197.672C350.597 195.914 351.584 194.416 352.833 193.177C354.098 191.938 355.566 190.976 357.236 190.289C358.923 189.603 360.72 189.26 362.626 189.26C363.756 189.26 364.862 189.393 365.941 189.661C367.022 189.929 368.042 190.314 369.003 190.816C369.983 191.319 370.893 191.938 371.737 192.675C372.581 193.395 373.323 194.207 373.964 195.111L361.007 210.604ZM364.549 196.467C364.229 196.349 363.909 196.274 363.588 196.241C363.284 196.207 362.964 196.19 362.626 196.19C361.682 196.19 360.787 196.366 359.944 196.718C359.117 197.053 358.392 197.538 357.767 198.174C357.16 198.81 356.679 199.58 356.325 200.484C355.97 201.372 355.793 202.376 355.793 203.498C355.793 203.749 355.802 204.034 355.818 204.352C355.852 204.67 355.895 204.996 355.945 205.331C356.012 205.649 356.089 205.959 356.173 206.26C356.257 206.561 356.367 206.829 356.502 207.064L364.549 196.467ZM385.453 217.184H378.191V181.174H385.453V195.588H399.955V181.174H407.219V217.184H399.955V202.795H385.453V217.184Z" fill="#D6D6D6"/>
</svg>
