<svg width="262" height="394" viewBox="0 0 262 394" fill="none" xmlns="http://www.w3.org/2000/svg">
<rect width="262" height="394" rx="4" fill="#888888"/>
<path d="M51.9104 216.184H44.6725V190.469C44.6725 189.967 44.5712 189.498 44.3687 189.063C44.1832 188.628 43.9217 188.251 43.5842 187.933C43.2637 187.598 42.8841 187.339 42.4454 187.155C42.0067 186.971 41.5343 186.878 41.0282 186.878C40.5221 186.878 40.0496 186.971 39.6109 187.155C39.1723 187.339 38.7843 187.598 38.4468 187.933C38.1263 188.251 37.8731 188.628 37.6875 189.063C37.502 189.498 37.4092 189.967 37.4092 190.469V216.184H30.146V190.469C30.146 189.967 30.0532 189.498 29.8676 189.063C29.682 188.628 29.4205 188.251 29.0831 187.933C28.7625 187.598 28.3829 187.339 27.9442 187.155C27.5055 186.971 27.0332 186.878 26.5269 186.878C26.0208 186.878 25.5484 186.971 25.1098 187.155C24.6711 187.339 24.283 187.598 23.9456 187.933C23.6251 188.251 23.372 188.628 23.1864 189.063C23.0008 189.498 22.908 189.967 22.908 190.469V216.184H15.6447V190.469C15.6447 188.979 15.9231 187.582 16.4799 186.276C17.0535 184.953 17.8296 183.806 18.8082 182.835C19.8036 181.848 20.9593 181.078 22.2753 180.525C23.6082 179.956 25.0254 179.671 26.5269 179.671C27.8767 179.671 29.1759 179.914 30.4243 180.4C31.6728 180.868 32.7948 181.555 33.7902 182.459C34.7857 181.555 35.8992 180.868 37.1308 180.4C38.3794 179.914 39.6785 179.671 41.0282 179.671C42.5298 179.671 43.9385 179.956 45.2545 180.525C46.5874 181.078 47.7431 181.848 48.7217 182.835C49.7171 183.806 50.4932 184.953 51.0499 186.276C51.6236 187.582 51.9104 188.979 51.9104 190.469V216.184ZM83.5701 202.498C83.5701 204.507 83.2073 206.382 82.4819 208.123C81.7564 209.847 80.7694 211.345 79.5209 212.618C78.2724 213.873 76.8046 214.869 75.1174 215.606C73.4471 216.326 71.6503 216.686 69.7269 216.686C67.8204 216.686 66.0235 216.326 64.3364 215.606C62.6661 214.869 61.1983 213.873 59.9329 212.618C58.6844 211.345 57.6974 209.847 56.9719 208.123C56.2464 206.382 55.8837 204.507 55.8837 202.498C55.8837 200.455 56.2464 198.564 56.9719 196.823C57.6974 195.082 58.6844 193.583 59.9329 192.328C61.1983 191.055 62.6661 190.059 64.3364 189.339C66.0235 188.62 67.8204 188.26 69.7269 188.26C71.6503 188.26 73.4471 188.603 75.1174 189.289C76.8046 189.959 78.2724 190.921 79.5209 192.177C80.7694 193.416 81.7564 194.914 82.4819 196.672C83.2073 198.413 83.5701 200.355 83.5701 202.498ZM76.6106 202.498C76.6106 201.393 76.425 200.397 76.0538 199.51C75.6994 198.606 75.2102 197.835 74.5859 197.199C73.9616 196.546 73.2278 196.053 72.3842 195.718C71.5575 195.366 70.6717 195.19 69.7269 195.19C68.782 195.19 67.8879 195.366 67.0443 195.718C66.2176 196.053 65.4921 196.546 64.8678 197.199C64.2605 197.835 63.7796 198.606 63.4253 199.51C63.0711 200.397 62.8939 201.393 62.8939 202.498C62.8939 203.536 63.0711 204.498 63.4253 205.386C63.7796 206.273 64.2605 207.043 64.8678 207.696C65.4921 208.349 66.2176 208.868 67.0443 209.253C67.8879 209.621 68.782 209.805 69.7269 209.805C70.6717 209.805 71.5575 209.63 72.3842 209.278C73.2278 208.926 73.9616 208.433 74.5859 207.796C75.2102 207.16 75.6994 206.39 76.0538 205.486C76.425 204.582 76.6106 203.586 76.6106 202.498ZM210.158 213.045C209.602 213.547 209.002 214.024 208.361 214.476C207.737 214.911 207.08 215.296 206.388 215.631C205.696 215.949 204.978 216.2 204.236 216.385C203.511 216.585 202.769 216.686 202.009 216.686C200.339 216.686 198.77 216.393 197.302 215.807C195.834 215.221 194.543 214.392 193.43 213.321C192.334 212.233 191.465 210.919 190.823 209.378C190.199 207.821 189.887 206.08 189.887 204.155V189.289H196.77V204.155C196.77 205.059 196.905 205.871 197.176 206.591C197.462 207.294 197.842 207.888 198.315 208.374C198.787 208.859 199.335 209.228 199.959 209.479C200.601 209.73 201.284 209.856 202.009 209.856C202.718 209.856 203.384 209.696 204.008 209.378C204.649 209.044 205.206 208.608 205.678 208.073C206.152 207.537 206.523 206.934 206.792 206.265C207.062 205.578 207.197 204.875 207.197 204.155V189.289H214.106V216.184H212.436L210.158 213.045ZM246.525 202.498C246.525 204.607 246.162 206.532 245.437 208.274C244.711 210.015 243.725 211.513 242.476 212.768C241.227 214.007 239.759 214.97 238.072 215.656C236.402 216.343 234.605 216.686 232.682 216.686C230.776 216.686 228.979 216.334 227.292 215.631C225.621 214.928 224.153 213.949 222.888 212.693C221.64 211.438 220.652 209.948 219.927 208.223C219.201 206.482 218.839 204.574 218.839 202.498V178.592H225.773V191.147C226.144 190.679 226.591 190.26 227.115 189.892C227.654 189.524 228.228 189.222 228.835 188.988C229.459 188.753 230.1 188.578 230.758 188.46C231.416 188.327 232.057 188.26 232.682 188.26C234.605 188.26 236.402 188.62 238.072 189.339C239.759 190.043 241.227 191.03 242.476 192.303C243.725 193.575 244.711 195.082 245.437 196.823C246.162 198.547 246.525 200.439 246.525 202.498ZM239.565 202.498C239.565 201.46 239.38 200.497 239.009 199.61C238.655 198.706 238.165 197.928 237.541 197.275C236.917 196.622 236.183 196.111 235.339 195.743C234.512 195.375 233.627 195.19 232.682 195.19C231.737 195.19 230.843 195.4 229.999 195.818C229.173 196.22 228.447 196.764 227.823 197.45C227.199 198.12 226.709 198.899 226.355 199.786C226.001 200.656 225.824 201.56 225.824 202.498C225.824 203.536 226.001 204.498 226.355 205.386C226.709 206.273 227.199 207.043 227.823 207.696C228.447 208.349 229.173 208.868 229.999 209.253C230.843 209.621 231.737 209.805 232.682 209.805C233.627 209.805 234.512 209.621 235.339 209.253C236.183 208.868 236.917 208.349 237.541 207.696C238.165 207.043 238.655 206.273 239.009 205.386C239.38 204.498 239.565 203.536 239.565 202.498Z" fill="#BBB2B2"/>
<path d="M95.085 216.184L84.7595 189.289H92.6302L98.5521 206.064L104.449 189.289H112.345L102.019 216.184H95.085ZM123.126 181.982C123.126 182.618 122.999 183.212 122.746 183.765C122.51 184.317 122.181 184.803 121.759 185.221C121.337 185.623 120.84 185.949 120.266 186.2C119.709 186.435 119.11 186.552 118.47 186.552C117.828 186.552 117.221 186.435 116.647 186.2C116.09 185.949 115.601 185.623 115.18 185.221C114.774 184.803 114.445 184.317 114.192 183.765C113.956 183.212 113.838 182.618 113.838 181.982C113.838 181.362 113.956 180.776 114.192 180.224C114.445 179.655 114.774 179.169 115.18 178.767C115.601 178.349 116.09 178.022 116.647 177.788C117.221 177.537 117.828 177.411 118.47 177.411C119.11 177.411 119.709 177.537 120.266 177.788C120.84 178.022 121.337 178.349 121.759 178.767C122.181 179.169 122.51 179.655 122.746 180.224C122.999 180.776 123.126 181.362 123.126 181.982ZM121.936 216.184H114.976V189.289H121.936V216.184ZM138.007 209.604C138.277 209.688 138.547 209.747 138.816 209.78C139.086 209.797 139.356 209.805 139.626 209.805C140.301 209.805 140.951 209.713 141.575 209.529C142.199 209.345 142.781 209.085 143.322 208.751C143.878 208.399 144.367 207.981 144.789 207.495C145.228 206.993 145.582 206.44 145.852 205.838L150.913 210.885C150.272 211.789 149.53 212.601 148.686 213.321C147.859 214.041 146.957 214.652 145.979 215.154C145.017 215.656 143.996 216.033 142.916 216.284C141.853 216.552 140.756 216.686 139.626 216.686C137.72 216.686 135.923 216.334 134.236 215.631C132.566 214.928 131.098 213.949 129.833 212.693C128.584 211.438 127.597 209.948 126.871 208.223C126.146 206.482 125.783 204.574 125.783 202.498C125.783 200.372 126.146 198.43 126.871 196.672C127.597 194.914 128.584 193.416 129.833 192.177C131.098 190.938 132.566 189.976 134.236 189.289C135.923 188.603 137.72 188.26 139.626 188.26C140.756 188.26 141.862 188.393 142.941 188.661C144.022 188.929 145.042 189.314 146.003 189.816C146.983 190.319 147.893 190.938 148.737 191.675C149.581 192.395 150.323 193.207 150.964 194.111L138.007 209.604ZM141.549 195.467C141.229 195.349 140.909 195.274 140.588 195.241C140.284 195.207 139.964 195.19 139.626 195.19C138.682 195.19 137.787 195.366 136.944 195.718C136.117 196.053 135.392 196.538 134.767 197.174C134.16 197.81 133.679 198.58 133.325 199.484C132.97 200.372 132.793 201.376 132.793 202.498C132.793 202.749 132.802 203.034 132.818 203.352C132.852 203.67 132.895 203.996 132.945 204.331C133.012 204.649 133.089 204.959 133.173 205.26C133.257 205.561 133.367 205.829 133.502 206.064L141.549 195.467ZM162.453 216.184H155.191V180.174H162.453V194.588H176.955V180.174H184.219V216.184H176.955V201.795H162.453V216.184Z" fill="#BBB2B2"/>
</svg>
