<svg width="76" height="70" viewBox="0 0 76 70" fill="none" xmlns="http://www.w3.org/2000/svg">
<path d="M5.25 3.73999C4.88 3.73999 4.59003 4.02997 4.59003 4.39001C4.59003 4.75 4.88 5.04999 5.25 5.04999C5.60999 5.04999 5.90997 4.75 5.90997 4.39001C5.90997 4.02997 5.60999 3.73999 5.25 3.73999Z" fill="#F5C518"/>
<path d="M69.02 0.929993H0.190002V7.85999H69.02V0.929993ZM5.25 7.04999C3.78003 7.04999 2.59003 5.85999 2.59003 4.39001C2.59003 2.92999 3.78003 1.73999 5.25 1.73999C6.72003 1.73999 7.90997 2.92999 7.90997 4.39001C7.90997 5.85999 6.72003 7.04999 5.25 7.04999ZM11.74 7.04999C10.27 7.04999 9.08002 5.85999 9.08002 4.39001C9.08002 2.92999 10.27 1.73999 11.74 1.73999C13.21 1.73999 14.4 2.92999 14.4 4.39001C14.4 5.85999 13.21 7.04999 11.74 7.04999ZM18.24 7.04999C16.77 7.04999 15.57 5.85999 15.57 4.39001C15.57 2.92999 16.77 1.73999 18.24 1.73999C19.7 1.73999 20.9 2.92999 20.9 4.39001C20.9 5.85999 19.7 7.04999 18.24 7.04999Z" fill="#F5C518"/>
<path d="M18.24 3.73999C17.87 3.73999 17.57 4.02997 17.57 4.39001C17.57 4.75 17.87 5.04999 18.24 5.04999C18.6 5.04999 18.9 4.75 18.9 4.39001C18.9 4.02997 18.6 3.73999 18.24 3.73999Z" fill="#F5C518"/>
<path d="M11.74 3.73999C11.38 3.73999 11.08 4.02997 11.08 4.39001C11.08 4.75 11.38 5.04999 11.74 5.04999C12.11 5.04999 12.4 4.75 12.4 4.39001C12.4 4.02997 12.11 3.73999 11.74 3.73999Z" fill="#F5C518"/>
<path d="M56.9 48.73C54.53 49.74 52.04 50.24 49.56 50.24C43.39 50.24 37.35 47.22 33.75 41.68C33.05 40.62 32.46 39.46 32 38.24C30.99 35.67 30.57 32.82 30.79 30.02C31.02 27.17 31.91 24.37 33.37 21.92C33.47 21.75 33.56 21.6 33.67 21.45C35.08 19.2 36.96 17.29 39.23 15.82C39.26 15.8 39.29 15.77 39.32 15.75C39.48 15.65 39.63 15.56 39.81 15.46C43.33 13.3 47.42 12.39 51.6 12.86C55.62 13.3 59.44 15.06 62.36 17.8C63.5 18.87 64.49 20.05 65.31 21.31C68.03 25.5 68.96 30.51 67.92 35.4C67.1 39.23 65.13 42.63 62.3 45.23C62.33 45.27 62.38 45.3 62.4 45.34L65 49.34C65.54 49.23 66.09 49.23 66.65 49.35C67.6 49.55 68.44 50.08 69.02 50.84V9.85999H0.190002V51.61H58.74L56.96 48.87C56.93 48.82 56.92 48.77 56.9 48.73ZM15.61 48.43C13.61 48.43 11.98 46.8 11.98 44.79C11.98 42.79 13.61 41.16 15.61 41.16C17.62 41.16 19.25 42.79 19.25 44.79C19.25 46.8 17.62 48.43 15.61 48.43ZM21 18.54L19.24 36.11C19.25 38.01 17.62 39.64 15.61 39.64C13.61 39.64 11.98 38.01 11.98 36.01L10.31 19.43V19.33L10.22 18.54C10.22 15.46 12.64 13.05 15.61 13.05C18.58 13.05 21 15.46 21 18.44V18.54Z" fill="#F5C518"/>
<path d="M65.96 34.98C66.89 30.61 66.07 26.14 63.63 22.39C62.9 21.27 62.02 20.22 61 19.26C58.39 16.81 54.97 15.24 51.38 14.85C47.65 14.43 44 15.24 40.82 17.19C40.67 17.27 40.56 17.34 40.45 17.4C40.43 17.42 40.4 17.44 40.37 17.46C38.33 18.78 36.63 20.49 35.33 22.56C35.22 22.71 35.16 22.82 35.09 22.93C33.78 25.13 32.99 27.63 32.79 30.18C32.59 32.68 32.96 35.22 33.87 37.52C34.28 38.61 34.8 39.64 35.43 40.59C38.65 45.54 44.05 48.24 49.56 48.24C52.68 48.24 55.84 47.37 58.66 45.55C62.43 43.11 65.02 39.36 65.96 34.98ZM57.67 44.04C55.18 45.65 52.36 46.46 49.53 46.46C46.89 46.46 44.25 45.75 41.87 44.35C39.88 43.17 38.23 41.57 36.96 39.62C36.4 38.77 35.93 37.85 35.57 36.89C34.76 34.83 34.42 32.55 34.59 30.32C34.77 28.05 35.48 25.82 36.65 23.86L36.87 23.51C38.03 21.68 39.54 20.15 41.36 18.98L41.77 18.72C44.6 16.99 47.85 16.26 51.17 16.64C53.28 16.87 55.36 17.56 57.17 18.63C58.1 19.18 58.96 19.83 59.75 20.57C60.67 21.43 61.46 22.37 62.1 23.36C64.28 26.72 65.02 30.71 64.18 34.62C63.35 38.52 61.03 41.87 57.67 44.04Z" fill="#F5C518"/>
<path d="M49.18 40.49C44.23 40.49 40.21 36.46 40.21 31.51C40.21 29.02 41.26 26.61 43.1 24.92C43.5 24.54 43.53 23.91 43.15 23.5C42.78 23.1 42.15 23.07 41.74 23.45C39.5 25.52 38.21 28.46 38.21 31.51C38.21 37.57 43.13 42.49 49.18 42.49C49.74 42.49 50.18 42.04 50.18 41.49C50.18 40.94 49.74 40.49 49.18 40.49Z" fill="#F5C518"/>
<path d="M67.54 52.2C67.24 51.74 66.78 51.42 66.23 51.3C66.09 51.27 65.94 51.26 65.8 51.26C65.4 51.26 65.01 51.37 64.67 51.59L61.79 53.45C61.27 53.78 60.95 54.25 60.84 54.79C60.72 55.32 60.83 55.87 61.13 56.33L69.4 69.07L75.81 64.92L67.54 52.2Z" fill="#F5C518"/>
<path d="M15.61 43.16C14.71 43.16 13.98 43.89 13.98 44.79C13.98 45.7 14.71 46.43 15.61 46.43C16.51 46.43 17.25 45.7 17.25 44.79C17.25 43.89 16.51 43.16 15.61 43.16Z" fill="#F5C518"/>
<path d="M15.61 15.05C13.74 15.05 12.22 16.57 12.22 18.44L12.3 19.23C12.3 19.26 12.31 19.3 12.31 19.33L13.97 35.91C13.98 36.91 14.71 37.64 15.61 37.64C16.51 37.64 17.25 36.91 17.25 36.01L19 18.39C18.98 16.54 17.47 15.05 15.61 15.05Z" fill="#F5C518"/>
<path d="M63.16 50.18L60.77 46.49C60.43 46.74 60.1 47 59.74 47.23C59.39 47.45 59.04 47.66 58.69 47.86L61.07 51.53L63.16 50.18Z" fill="#F5C518"/>
<path d="M45.3 23.32C45.43 23.32 45.56 23.3 45.69 23.24C45.97 23.13 46.25 23.02 46.55 22.93C47.08 22.77 47.37 22.21 47.21 21.68C47.05 21.15 46.49 20.86 45.96 21.02C45.6 21.13 45.25 21.26 44.91 21.4C44.4 21.62 44.16 22.2 44.38 22.71C44.54 23.09 44.91 23.32 45.3 23.32Z" fill="#F5C518"/>
</svg>
